<svg width="16" height="16" viewBox="0 0 16 16" fill="none" xmlns="http://www.w3.org/2000/svg">
<path d="M3.99805 13.1719C3.38477 13.1719 2.92383 13.0195 2.61523 12.7148C2.31055 12.4141 2.1582 11.9609 2.1582 11.3555V4.20117C2.1582 3.5957 2.31055 3.14258 2.61523 2.8418C2.92383 2.53711 3.38477 2.38477 3.99805 2.38477H12.002C12.6152 2.38477 13.0742 2.53711 13.3789 2.8418C13.6836 3.14258 13.8359 3.5957 13.8359 4.20117V11.3555C13.8359 11.9609 13.6836 12.4141 13.3789 12.7148C13.0742 13.0195 12.6152 13.1719 12.002 13.1719H3.99805ZM3.91016 12.2285H12.0781C12.3398 12.2285 12.541 12.1582 12.6816 12.0176C12.8223 11.8809 12.8926 11.6777 12.8926 11.4082V5.88281C12.8926 5.61328 12.8223 5.41016 12.6816 5.27344C12.541 5.13281 12.3398 5.0625 12.0781 5.0625H3.91016C3.65234 5.0625 3.45312 5.13281 3.3125 5.27344C3.17188 5.41016 3.10156 5.61328 3.10156 5.88281V11.4082C3.10156 11.6777 3.17188 11.8809 3.3125 12.0176C3.45312 12.1582 3.65234 12.2285 3.91016 12.2285ZM6.85742 7.17188C6.75586 7.17188 6.68359 7.15234 6.64062 7.11328C6.60156 7.07422 6.58203 7.00391 6.58203 6.90234V6.55664C6.58203 6.45508 6.60156 6.38672 6.64062 6.35156C6.68359 6.3125 6.75586 6.29297 6.85742 6.29297H7.20312C7.30469 6.29297 7.375 6.3125 7.41406 6.35156C7.45703 6.38672 7.47852 6.45508 7.47852 6.55664V6.90234C7.47852 7.00391 7.45703 7.07422 7.41406 7.11328C7.375 7.15234 7.30469 7.17188 7.20312 7.17188H6.85742ZM8.80273 7.17188C8.70117 7.17188 8.63086 7.15234 8.5918 7.11328C8.55273 7.07422 8.5332 7.00391 8.5332 6.90234V6.55664C8.5332 6.45508 8.55273 6.38672 8.5918 6.35156C8.63086 6.3125 8.70117 6.29297 8.80273 6.29297H9.14844C9.25391 6.29297 9.32617 6.3125 9.36523 6.35156C9.4043 6.38672 9.42383 6.45508 9.42383 6.55664V6.90234C9.42383 7.00391 9.4043 7.07422 9.36523 7.11328C9.32617 7.15234 9.25391 7.17188 9.14844 7.17188H8.80273ZM10.7539 7.17188C10.6484 7.17188 10.5762 7.15234 10.5371 7.11328C10.498 7.07422 10.4785 7.00391 10.4785 6.90234V6.55664C10.4785 6.45508 10.498 6.38672 10.5371 6.35156C10.5762 6.3125 10.6484 6.29297 10.7539 6.29297H11.0938C11.1992 6.29297 11.2715 6.3125 11.3105 6.35156C11.3496 6.38672 11.3691 6.45508 11.3691 6.55664V6.90234C11.3691 7.00391 11.3496 7.07422 11.3105 7.11328C11.2715 7.15234 11.1992 7.17188 11.0938 7.17188H10.7539ZM4.91211 9.08789C4.80664 9.08789 4.73438 9.06836 4.69531 9.0293C4.65625 8.99023 4.63672 8.91992 4.63672 8.81836V8.47852C4.63672 8.37305 4.65625 8.30273 4.69531 8.26758C4.73438 8.22852 4.80664 8.20898 4.91211 8.20898H5.25781C5.35938 8.20898 5.42969 8.22852 5.46875 8.26758C5.50781 8.30273 5.52734 8.37305 5.52734 8.47852V8.81836C5.52734 8.91992 5.50781 8.99023 5.46875 9.0293C5.42969 9.06836 5.35938 9.08789 5.25781 9.08789H4.91211ZM6.85742 9.08789C6.75586 9.08789 6.68359 9.06836 6.64062 9.0293C6.60156 8.99023 6.58203 8.91992 6.58203 8.81836V8.47852C6.58203 8.37305 6.60156 8.30273 6.64062 8.26758C6.68359 8.22852 6.75586 8.20898 6.85742 8.20898H7.20312C7.30469 8.20898 7.375 8.22852 7.41406 8.26758C7.45703 8.30273 7.47852 8.37305 7.47852 8.47852V8.81836C7.47852 8.91992 7.45703 8.99023 7.41406 9.0293C7.375 9.06836 7.30469 9.08789 7.20312 9.08789H6.85742ZM8.80273 9.08789C8.70117 9.08789 8.63086 9.06836 8.5918 9.0293C8.55273 8.99023 8.5332 8.91992 8.5332 8.81836V8.47852C8.5332 8.37305 8.55273 8.30273 8.5918 8.26758C8.63086 8.22852 8.70117 8.20898 8.80273 8.20898H9.14844C9.25391 8.20898 9.32617 8.22852 9.36523 8.26758C9.4043 8.30273 9.42383 8.37305 9.42383 8.47852V8.81836C9.42383 8.91992 9.4043 8.99023 9.36523 9.0293C9.32617 9.06836 9.25391 9.08789 9.14844 9.08789H8.80273ZM10.7539 9.08789C10.6484 9.08789 10.5762 9.06836 10.5371 9.0293C10.498 8.99023 10.4785 8.91992 10.4785 8.81836V8.47852C10.4785 8.37305 10.498 8.30273 10.5371 8.26758C10.5762 8.22852 10.6484 8.20898 10.7539 8.20898H11.0938C11.1992 8.20898 11.2715 8.22852 11.3105 8.26758C11.3496 8.30273 11.3691 8.37305 11.3691 8.47852V8.81836C11.3691 8.91992 11.3496 8.99023 11.3105 9.0293C11.2715 9.06836 11.1992 9.08789 11.0938 9.08789H10.7539ZM4.91211 11.0039C4.80664 11.0039 4.73438 10.9863 4.69531 10.9512C4.65625 10.9121 4.63672 10.8398 4.63672 10.7344V10.3945C4.63672 10.2891 4.65625 10.2188 4.69531 10.1836C4.73438 10.1445 4.80664 10.125 4.91211 10.125H5.25781C5.35938 10.125 5.42969 10.1445 5.46875 10.1836C5.50781 10.2188 5.52734 10.2891 5.52734 10.3945V10.7344C5.52734 10.8398 5.50781 10.9121 5.46875 10.9512C5.42969 10.9863 5.35938 11.0039 5.25781 11.0039H4.91211ZM6.85742 11.0039C6.75586 11.0039 6.68359 10.9863 6.64062 10.9512C6.60156 10.9121 6.58203 10.8398 6.58203 10.7344V10.3945C6.58203 10.2891 6.60156 10.2188 6.64062 10.1836C6.68359 10.1445 6.75586 10.125 6.85742 10.125H7.20312C7.30469 10.125 7.375 10.1445 7.41406 10.1836C7.45703 10.2188 7.47852 10.2891 7.47852 10.3945V10.7344C7.47852 10.8398 7.45703 10.9121 7.41406 10.9512C7.375 10.9863 7.30469 11.0039 7.20312 11.0039H6.85742ZM8.80273 11.0039C8.70117 11.0039 8.63086 10.9863 8.5918 10.9512C8.55273 10.9121 8.5332 10.8398 8.5332 10.7344V10.3945C8.5332 10.2891 8.55273 10.2188 8.5918 10.1836C8.63086 10.1445 8.70117 10.125 8.80273 10.125H9.14844C9.25391 10.125 9.32617 10.1445 9.36523 10.1836C9.4043 10.2188 9.42383 10.2891 9.42383 10.3945V10.7344C9.42383 10.8398 9.4043 10.9121 9.36523 10.9512C9.32617 10.9863 9.25391 11.0039 9.14844 11.0039H8.80273Z" fill="#ABB0BA"/>
</svg>
