<svg width="15" height="16" viewBox="0 0 15 16" fill="none" xmlns="http://www.w3.org/2000/svg">
<path d="M1.125 15.6094C0.927083 15.6094 0.755208 15.5365 0.609375 15.3906C0.46875 15.25 0.398438 15.0833 0.398438 14.8906V1.92188C0.398438 1.56771 0.479167 1.28385 0.640625 1.07031C0.807292 0.851562 1.02604 0.679688 1.29688 0.554688C1.51042 0.460938 1.72135 0.382812 1.92969 0.320312C2.13802 0.252604 2.3776 0.203125 2.64844 0.171875C2.91927 0.140625 3.2526 0.125 3.64844 0.125C4.35677 0.125 5.01823 0.195312 5.63281 0.335938C6.2526 0.476562 6.85417 0.643229 7.4375 0.835938C8.02604 1.02344 8.61979 1.1901 9.21875 1.33594C9.82292 1.47656 10.4635 1.54688 11.1406 1.54688C11.7708 1.54688 12.2734 1.4974 12.6484 1.39844C13.0234 1.29427 13.3229 1.24219 13.5469 1.24219C13.8125 1.24219 14.0312 1.31771 14.2031 1.46875C14.3802 1.61458 14.4688 1.8151 14.4688 2.07031V9.85938C14.4688 10.224 14.388 10.5234 14.2266 10.7578C14.0703 10.987 13.8542 11.1641 13.5781 11.2891C13.375 11.3828 13.1693 11.4635 12.9609 11.5312C12.7526 11.5938 12.5104 11.6406 12.2344 11.6719C11.9635 11.7031 11.6276 11.7188 11.2266 11.7188C10.5391 11.7188 9.89323 11.6484 9.28906 11.5078C8.6849 11.362 8.09115 11.1953 7.50781 11.0078C6.92969 10.8203 6.33333 10.6562 5.71875 10.5156C5.10417 10.3698 4.44271 10.2969 3.73438 10.2969C3.22917 10.2969 2.8151 10.3411 2.49219 10.4297C2.16927 10.513 1.95573 10.5755 1.85156 10.6172V14.8906C1.85156 15.0885 1.77865 15.2578 1.63281 15.3984C1.49219 15.5391 1.32292 15.6094 1.125 15.6094ZM11.2031 10.2578C11.7344 10.2578 12.1484 10.1979 12.4453 10.0781C12.7474 9.95833 12.9297 9.84115 12.9922 9.72656V2.78125C12.7578 2.84375 12.4818 2.89583 12.1641 2.9375C11.8464 2.97396 11.4974 2.99219 11.1172 2.99219C10.4141 2.99219 9.7526 2.92188 9.13281 2.78125C8.51823 2.63542 7.91927 2.47135 7.33594 2.28906C6.7526 2.10156 6.16146 1.9375 5.5625 1.79688C4.96875 1.65104 4.33854 1.57812 3.67188 1.57812C3.13542 1.57812 2.71875 1.64062 2.42188 1.76562C2.125 1.88542 1.94531 2.0026 1.88281 2.11719V9.08594C2.08594 9.00781 2.35156 8.94792 2.67969 8.90625C3.01302 8.86458 3.3724 8.84375 3.75781 8.84375C4.49219 8.84375 5.17448 8.91667 5.80469 9.0625C6.4401 9.20312 7.04948 9.36719 7.63281 9.55469C8.21615 9.73698 8.79688 9.90104 9.375 10.0469C9.95833 10.1875 10.5677 10.2578 11.2031 10.2578Z" fill="#666666"/>
</svg>
