<svg width="16" height="16" viewBox="0 0 16 16" fill="none" xmlns="http://www.w3.org/2000/svg">
<path d="M5.79688 4.54492C5.79688 4.13867 5.89453 3.76953 6.08984 3.4375C6.28906 3.10156 6.55469 2.83398 6.88672 2.63477C7.21875 2.43555 7.58789 2.33594 7.99414 2.33594C8.4043 2.33594 8.77539 2.43555 9.10742 2.63477C9.43945 2.83398 9.70312 3.10156 9.89844 3.4375C10.0977 3.76953 10.1973 4.13867 10.1973 4.54492C10.1973 4.88867 10.125 5.20703 9.98047 5.5C9.83594 5.79297 9.63867 6.04297 9.38867 6.25C9.13867 6.45703 8.85547 6.59961 8.53906 6.67773V12.1152C8.53906 12.5488 8.52148 12.9316 8.48633 13.2637C8.45117 13.5957 8.40625 13.875 8.35156 14.1016C8.30078 14.3281 8.24219 14.498 8.17578 14.6113C8.11328 14.7285 8.05273 14.7871 7.99414 14.7871C7.93555 14.7871 7.875 14.7285 7.8125 14.6113C7.75 14.4941 7.69141 14.3223 7.63672 14.0957C7.58203 13.8691 7.53711 13.5898 7.50195 13.2578C7.4668 12.9297 7.44922 12.5488 7.44922 12.1152V6.67773C7.13281 6.59961 6.84961 6.45703 6.59961 6.25C6.34961 6.04297 6.15234 5.79297 6.00781 5.5C5.86719 5.20703 5.79688 4.88867 5.79688 4.54492ZM7.36133 4.66211C7.56836 4.66211 7.74609 4.58789 7.89453 4.43945C8.04297 4.28711 8.11719 4.10938 8.11719 3.90625C8.11719 3.70312 8.04297 3.52734 7.89453 3.37891C7.74609 3.23047 7.56836 3.15625 7.36133 3.15625C7.16211 3.15625 6.98633 3.23047 6.83398 3.37891C6.68555 3.52734 6.61133 3.70312 6.61133 3.90625C6.61133 4.10938 6.68555 4.28711 6.83398 4.43945C6.98633 4.58789 7.16211 4.66211 7.36133 4.66211Z" fill="#ABB0BA"/>
</svg>
