<svg width="12" height="13" viewBox="0 0 12 13" fill="none" xmlns="http://www.w3.org/2000/svg">
<path d="M2.93555 7.40234H5.99414C6.11133 7.40234 6.20898 7.36328 6.28711 7.28516C6.36523 7.20703 6.4043 7.10938 6.4043 6.99219V3.04297C6.4043 2.92969 6.36523 2.83398 6.28711 2.75586C6.20898 2.67773 6.11133 2.63867 5.99414 2.63867C5.88086 2.63867 5.78516 2.67773 5.70703 2.75586C5.62891 2.83398 5.58984 2.92969 5.58984 3.04297V6.58789H2.93555C2.81836 6.58789 2.7207 6.62695 2.64258 6.70508C2.56445 6.7832 2.52539 6.87891 2.52539 6.99219C2.52539 7.10938 2.56445 7.20703 2.64258 7.28516C2.7207 7.36328 2.81836 7.40234 2.93555 7.40234ZM6 12.7461C5.17578 12.7461 4.40234 12.5898 3.67969 12.2773C2.95703 11.9688 2.32227 11.541 1.77539 10.9941C1.22852 10.4434 0.798828 9.80859 0.486328 9.08984C0.177734 8.36719 0.0234375 7.59375 0.0234375 6.76953C0.0234375 5.94531 0.177734 5.17188 0.486328 4.44922C0.798828 3.72656 1.22852 3.0918 1.77539 2.54492C2.32227 1.99805 2.95703 1.57031 3.67969 1.26172C4.40234 0.949219 5.17578 0.792969 6 0.792969C6.82422 0.792969 7.59766 0.949219 8.32031 1.26172C9.04297 1.57031 9.67773 1.99805 10.2246 2.54492C10.7715 3.0918 11.1992 3.72656 11.5078 4.44922C11.8203 5.17188 11.9766 5.94531 11.9766 6.76953C11.9766 7.59375 11.8203 8.36719 11.5078 9.08984C11.1992 9.80859 10.7715 10.4434 10.2246 10.9941C9.67773 11.541 9.04297 11.9688 8.32031 12.2773C7.59766 12.5898 6.82422 12.7461 6 12.7461Z" fill="#ABB0BA"/>
</svg>
