<svg width="36" height="36" viewBox="0 0 36 36" fill="none" xmlns="http://www.w3.org/2000/svg">
<path d="M18 30.8086C17.0521 30.8086 16.1589 30.4805 15.3203 29.8242C14.4909 29.168 13.7572 28.2474 13.1191 27.0625C12.4902 25.8776 11.9935 24.4876 11.6289 22.8926C11.2734 21.2884 11.0957 19.543 11.0957 17.6562C11.0957 15.7695 11.2734 14.0241 11.6289 12.4199C11.9935 10.8066 12.4902 9.40755 13.1191 8.22266C13.748 7.02865 14.4772 6.10352 15.3066 5.44727C16.1452 4.79102 17.043 4.46289 18 4.46289C18.957 4.46289 19.8503 4.79102 20.6797 5.44727C21.5182 6.10352 22.252 7.02865 22.8809 8.22266C23.5189 9.40755 24.0156 10.8066 24.3711 12.4199C24.7266 14.0241 24.9043 15.7695 24.9043 17.6562C24.9043 19.543 24.722 21.2884 24.3574 22.8926C24.002 24.4876 23.5052 25.8776 22.8672 27.0625C22.2383 28.2474 21.5046 29.168 20.666 29.8242C19.8366 30.4805 18.9479 30.8086 18 30.8086ZM18 6.11719C17.3346 6.11719 16.6966 6.42708 16.0859 7.04688C15.4753 7.65755 14.9329 8.49609 14.459 9.5625C13.985 10.6289 13.6113 11.8594 13.3379 13.2539C13.0645 14.6393 12.9277 16.1068 12.9277 17.6562C12.9277 19.1875 13.0645 20.6413 13.3379 22.0176C13.6113 23.3939 13.985 24.6198 14.459 25.6953C14.9329 26.7617 15.4753 27.6003 16.0859 28.2109C16.6966 28.8307 17.3346 29.1406 18 29.1406C18.6654 29.1406 19.3034 28.8307 19.9141 28.2109C20.5247 27.6003 21.0671 26.7617 21.541 25.6953C22.015 24.6198 22.3887 23.3939 22.6621 22.0176C22.9355 20.6413 23.0723 19.1875 23.0723 17.6562C23.0723 16.1068 22.9355 14.6393 22.6621 13.2539C22.3887 11.8594 22.015 10.6289 21.541 9.5625C21.0671 8.49609 20.5247 7.65755 19.9141 7.04688C19.3034 6.42708 18.6654 6.11719 18 6.11719ZM17.1113 4.6543H18.9023V30.5488H17.1113V4.6543ZM18 22.7695C19.4036 22.7695 20.7344 22.888 21.9922 23.125C23.25 23.3529 24.3802 23.6855 25.3828 24.123C26.3945 24.5514 27.2194 25.0573 27.8574 25.6406L26.4766 26.7754C25.875 26.3014 25.1504 25.9004 24.3027 25.5723C23.4642 25.235 22.5117 24.9844 21.4453 24.8203C20.388 24.6471 19.2396 24.5605 18 24.5605C16.7604 24.5605 15.6074 24.6471 14.541 24.8203C13.4837 24.9844 12.5312 25.235 11.6836 25.5723C10.8451 25.9004 10.125 26.3014 9.52344 26.7754L8.14258 25.6406C8.7806 25.0573 9.60091 24.5514 10.6035 24.123C11.6152 23.6855 12.75 23.3529 14.0078 23.125C15.2656 22.888 16.5964 22.7695 18 22.7695ZM30.6191 16.7266V18.5176H5.38086V16.7266H30.6191ZM18 12.5566C16.5964 12.5566 15.2656 12.4427 14.0078 12.2148C12.75 11.9779 11.6152 11.6452 10.6035 11.2168C9.60091 10.7793 8.7806 10.2689 8.14258 9.68555L9.52344 8.55078C10.125 9.02474 10.8451 9.43034 11.6836 9.76758C12.5312 10.0957 13.4837 10.3464 14.541 10.5195C15.6074 10.6836 16.7604 10.7656 18 10.7656C19.2396 10.7656 20.388 10.6836 21.4453 10.5195C22.5117 10.3464 23.4642 10.0957 24.3027 9.76758C25.1504 9.43034 25.875 9.02474 26.4766 8.55078L27.8574 9.68555C27.2194 10.2689 26.3945 10.7793 25.3828 11.2168C24.3802 11.6452 23.25 11.9779 21.9922 12.2148C20.7344 12.4427 19.4036 12.5566 18 12.5566ZM18 31.5742C16.0768 31.5742 14.2721 31.2096 12.5859 30.4805C10.8997 29.7604 9.41862 28.7624 8.14258 27.4863C6.86654 26.2103 5.86393 24.7292 5.13477 23.043C4.41471 21.3568 4.05469 19.5521 4.05469 17.6289C4.05469 15.7057 4.41471 13.901 5.13477 12.2148C5.86393 10.5286 6.86654 9.04753 8.14258 7.77148C9.41862 6.48633 10.8997 5.48372 12.5859 4.76367C14.2721 4.04362 16.0768 3.68359 18 3.68359C19.9232 3.68359 21.7279 4.04362 23.4141 4.76367C25.1003 5.48372 26.5814 6.48633 27.8574 7.77148C29.1335 9.04753 30.1315 10.5286 30.8516 12.2148C31.5807 13.901 31.9453 15.7057 31.9453 17.6289C31.9453 19.5521 31.5807 21.3568 30.8516 23.043C30.1315 24.7292 29.1335 26.2103 27.8574 27.4863C26.5814 28.7624 25.1003 29.7604 23.4141 30.4805C21.7279 31.2096 19.9232 31.5742 18 31.5742ZM18 29.7148C19.668 29.7148 21.2311 29.4004 22.6895 28.7715C24.1478 28.1426 25.4329 27.2767 26.5449 26.1738C27.6569 25.0618 28.5228 23.7767 29.1426 22.3184C29.7715 20.86 30.0859 19.2969 30.0859 17.6289C30.0859 15.9609 29.7715 14.3978 29.1426 12.9395C28.5228 11.472 27.6569 10.1868 26.5449 9.08398C25.4329 7.97201 24.1478 7.10612 22.6895 6.48633C21.2311 5.85742 19.668 5.54297 18 5.54297C16.332 5.54297 14.7689 5.85742 13.3105 6.48633C11.8522 7.10612 10.5671 7.97201 9.45508 9.08398C8.3431 10.1868 7.47266 11.472 6.84375 12.9395C6.22396 14.3978 5.91406 15.9609 5.91406 17.6289C5.91406 19.2969 6.22396 20.86 6.84375 22.3184C7.47266 23.7767 8.3431 25.0618 9.45508 26.1738C10.5671 27.2767 11.8522 28.1426 13.3105 28.7715C14.7689 29.4004 16.332 29.7148 18 29.7148Z" fill="#888888"/>
</svg>
