<svg width="79" height="23" viewBox="0 0 87 31" fill="none" xmlns="http://www.w3.org/2000/svg">
<g filter="url(#filter0_d_289_2526)">
<path d="M11.4062 14.6211V17.1172L9.82422 17.1758C8.24609 17.2305 7.16797 16.957 6.58984 16.3555C6.21484 15.9727 6.02734 15.3828 6.02734 14.5859V6.72266H4.24609V4.34375H6.02734V0.78125H9.33203V4.34375H11.4062V6.72266H9.33203V13.4727C9.33203 13.9961 9.39844 14.3242 9.53125 14.457C9.66406 14.582 10.0703 14.6445 10.75 14.6445C10.8516 14.6445 10.957 14.6445 11.0664 14.6445C11.1836 14.6367 11.2969 14.6289 11.4062 14.6211ZM24.2031 5.84375C25.2812 7.19531 25.8203 8.79297 25.8203 10.6367C25.8203 12.5117 25.2812 14.1172 24.2031 15.4531C23.125 16.7812 21.4883 17.4453 19.293 17.4453C17.0977 17.4453 15.4609 16.7812 14.3828 15.4531C13.3047 14.1172 12.7656 12.5117 12.7656 10.6367C12.7656 8.79297 13.3047 7.19531 14.3828 5.84375C15.4609 4.49219 17.0977 3.81641 19.293 3.81641C21.4883 3.81641 23.125 4.49219 24.2031 5.84375ZM19.2812 6.64062C18.3047 6.64062 17.5508 6.98828 17.0195 7.68359C16.4961 8.37109 16.2344 9.35547 16.2344 10.6367C16.2344 11.918 16.4961 12.9062 17.0195 13.6016C17.5508 14.2969 18.3047 14.6445 19.2812 14.6445C20.2578 14.6445 21.0078 14.2969 21.5312 13.6016C22.0547 12.9062 22.3164 11.918 22.3164 10.6367C22.3164 9.35547 22.0547 8.37109 21.5312 7.68359C21.0078 6.98828 20.2578 6.64062 19.2812 6.64062ZM36.4141 15.1953C36.3828 15.2344 36.3047 15.3516 36.1797 15.5469C36.0547 15.7422 35.9062 15.9141 35.7344 16.0625C35.2109 16.5312 34.7031 16.8516 34.2109 17.0234C33.7266 17.1953 33.1562 17.2812 32.5 17.2812C30.6094 17.2812 29.3359 16.6016 28.6797 15.2422C28.3125 14.4922 28.1289 13.3867 28.1289 11.9258V4.22656H31.5508V11.9258C31.5508 12.6523 31.6367 13.1992 31.8086 13.5664C32.1133 14.2148 32.7109 14.5391 33.6016 14.5391C34.7422 14.5391 35.5234 14.0781 35.9453 13.1562C36.1641 12.6562 36.2734 11.9961 36.2734 11.1758V4.22656H39.6602V17H36.4141V15.1953ZM43.375 5.60938C44.2578 4.48438 45.7734 3.92188 47.9219 3.92188C49.3203 3.92188 50.5625 4.19922 51.6484 4.75391C52.7344 5.30859 53.2773 6.35547 53.2773 7.89453V13.7539C53.2773 14.1602 53.2852 14.6523 53.3008 15.2305C53.3242 15.668 53.3906 15.9648 53.5 16.1211C53.6094 16.2773 53.7734 16.4062 53.9922 16.5078V17H50.3594C50.2578 16.7422 50.1875 16.5 50.1484 16.2734C50.1094 16.0469 50.0781 15.7891 50.0547 15.5C49.5938 16 49.0625 16.4258 48.4609 16.7773C47.7422 17.1914 46.9297 17.3984 46.0234 17.3984C44.8672 17.3984 43.9102 17.0703 43.1523 16.4141C42.4023 15.75 42.0273 14.8125 42.0273 13.6016C42.0273 12.0312 42.6328 10.8945 43.8438 10.1914C44.5078 9.80859 45.4844 9.53516 46.7734 9.37109L47.9102 9.23047C48.5273 9.15234 48.9688 9.05469 49.2344 8.9375C49.7109 8.73438 49.9492 8.41797 49.9492 7.98828C49.9492 7.46484 49.7656 7.10547 49.3984 6.91016C49.0391 6.70703 48.5078 6.60547 47.8047 6.60547C47.0156 6.60547 46.457 6.80078 46.1289 7.19141C45.8945 7.48047 45.7383 7.87109 45.6602 8.36328H42.4375C42.5078 7.24609 42.8203 6.32812 43.375 5.60938ZM45.8594 14.5859C46.1719 14.8438 46.5547 14.9727 47.0078 14.9727C47.7266 14.9727 48.3867 14.7617 48.9883 14.3398C49.5977 13.918 49.9141 13.1484 49.9375 12.0312V10.7891C49.7266 10.9219 49.5117 11.0312 49.293 11.1172C49.082 11.1953 48.7891 11.2695 48.4141 11.3398L47.6641 11.4805C46.9609 11.6055 46.457 11.7578 46.1523 11.9375C45.6367 12.2422 45.3789 12.7148 45.3789 13.3555C45.3789 13.9258 45.5391 14.3359 45.8594 14.5859ZM62.2656 6.69922C61.1328 6.69922 60.3555 7.17969 59.9336 8.14062C59.7148 8.64844 59.6055 9.29688 59.6055 10.0859V17H56.2773V4.25H59.5V6.11328C59.9297 5.45703 60.3359 4.98438 60.7188 4.69531C61.4062 4.17969 62.2773 3.92188 63.332 3.92188C64.6523 3.92188 65.7305 4.26953 66.5664 4.96484C67.4102 5.65234 67.832 6.79688 67.832 8.39844V17H64.4102V9.23047C64.4102 8.55859 64.3203 8.04297 64.1406 7.68359C63.8125 7.02734 63.1875 6.69922 62.2656 6.69922ZM74.5352 19.2383C74.8945 19.543 75.5 19.6953 76.3516 19.6953C77.5547 19.6953 78.3594 19.293 78.7656 18.4883C79.0312 17.9727 79.1641 17.1055 79.1641 15.8867V15.0664C78.8438 15.6133 78.5 16.0234 78.1328 16.2969C77.4688 16.8047 76.6055 17.0586 75.543 17.0586C73.9023 17.0586 72.5898 16.4844 71.6055 15.3359C70.6289 14.1797 70.1406 12.6172 70.1406 10.6484C70.1406 8.75 70.6133 7.15625 71.5586 5.86719C72.5039 4.57031 73.8438 3.92188 75.5781 3.92188C76.2188 3.92188 76.7773 4.01953 77.2539 4.21484C78.0664 4.55078 78.7227 5.16797 79.2227 6.06641V4.22656H82.4688V16.3438C82.4688 17.9922 82.1914 19.2344 81.6367 20.0703C80.6836 21.5078 78.8555 22.2266 76.1523 22.2266C74.5195 22.2266 73.1875 21.9062 72.1562 21.2656C71.125 20.625 70.5547 19.668 70.4453 18.3945H74.0781C74.1719 18.7852 74.3242 19.0664 74.5352 19.2383ZM73.9727 12.6406C74.4258 13.7188 75.2383 14.2578 76.4102 14.2578C77.1914 14.2578 77.8516 13.9648 78.3906 13.3789C78.9297 12.7852 79.1992 11.8438 79.1992 10.5547C79.1992 9.34375 78.9414 8.42188 78.4258 7.78906C77.918 7.15625 77.2344 6.83984 76.375 6.83984C75.2031 6.83984 74.3945 7.39062 73.9492 8.49219C73.7148 9.07812 73.5977 9.80078 73.5977 10.6602C73.5977 11.4023 73.7227 12.0625 73.9727 12.6406Z" fill="white"/>
</g>
<defs>
<filter id="filter0_d_289_2526" x="0.246094" y="0.78125" width="86.2227" height="29.4453" filterUnits="userSpaceOnUse" color-interpolation-filters="sRGB">
<feFlood flood-opacity="0" result="BackgroundImageFix"/>
<feColorMatrix in="SourceAlpha" type="matrix" values="0 0 0 0 0 0 0 0 0 0 0 0 0 0 0 0 0 0 127 0" result="hardAlpha"/>
<feOffset dy="4"/>
<feGaussianBlur stdDeviation="2"/>
<feComposite in2="hardAlpha" operator="out"/>
<feColorMatrix type="matrix" values="0 0 0 0 0 0 0 0 0 0 0 0 0 0 0 0 0 0 0.25 0"/>
<feBlend mode="normal" in2="BackgroundImageFix" result="effect1_dropShadow_289_2526"/>
<feBlend mode="normal" in="SourceGraphic" in2="effect1_dropShadow_289_2526" result="shape"/>
</filter>
</defs>
</svg>
