<svg width="79" height="23" viewBox="0 0 79 23" fill="none" xmlns="http://www.w3.org/2000/svg">
<path d="M7.40625 14.6211V17.1172L5.82422 17.1758C4.24609 17.2305 3.16797 16.957 2.58984 16.3555C2.21484 15.9727 2.02734 15.3828 2.02734 14.5859V6.72266H0.246094V4.34375H2.02734V0.78125H5.33203V4.34375H7.40625V6.72266H5.33203V13.4727C5.33203 13.9961 5.39844 14.3242 5.53125 14.457C5.66406 14.582 6.07031 14.6445 6.75 14.6445C6.85156 14.6445 6.95703 14.6445 7.06641 14.6445C7.18359 14.6367 7.29688 14.6289 7.40625 14.6211ZM20.2031 5.84375C21.2812 7.19531 21.8203 8.79297 21.8203 10.6367C21.8203 12.5117 21.2812 14.1172 20.2031 15.4531C19.125 16.7812 17.4883 17.4453 15.293 17.4453C13.0977 17.4453 11.4609 16.7812 10.3828 15.4531C9.30469 14.1172 8.76562 12.5117 8.76562 10.6367C8.76562 8.79297 9.30469 7.19531 10.3828 5.84375C11.4609 4.49219 13.0977 3.81641 15.293 3.81641C17.4883 3.81641 19.125 4.49219 20.2031 5.84375ZM15.2812 6.64062C14.3047 6.64062 13.5508 6.98828 13.0195 7.68359C12.4961 8.37109 12.2344 9.35547 12.2344 10.6367C12.2344 11.918 12.4961 12.9062 13.0195 13.6016C13.5508 14.2969 14.3047 14.6445 15.2812 14.6445C16.2578 14.6445 17.0078 14.2969 17.5312 13.6016C18.0547 12.9062 18.3164 11.918 18.3164 10.6367C18.3164 9.35547 18.0547 8.37109 17.5312 7.68359C17.0078 6.98828 16.2578 6.64062 15.2812 6.64062ZM32.4141 15.1953C32.3828 15.2344 32.3047 15.3516 32.1797 15.5469C32.0547 15.7422 31.9062 15.9141 31.7344 16.0625C31.2109 16.5312 30.7031 16.8516 30.2109 17.0234C29.7266 17.1953 29.1562 17.2812 28.5 17.2812C26.6094 17.2812 25.3359 16.6016 24.6797 15.2422C24.3125 14.4922 24.1289 13.3867 24.1289 11.9258V4.22656H27.5508V11.9258C27.5508 12.6523 27.6367 13.1992 27.8086 13.5664C28.1133 14.2148 28.7109 14.5391 29.6016 14.5391C30.7422 14.5391 31.5234 14.0781 31.9453 13.1562C32.1641 12.6562 32.2734 11.9961 32.2734 11.1758V4.22656H35.6602V17H32.4141V15.1953Z" fill="#555555"/>
<path d="M39.375 5.60938C40.2578 4.48438 41.7734 3.92188 43.9219 3.92188C45.3203 3.92188 46.5625 4.19922 47.6484 4.75391C48.7344 5.30859 49.2773 6.35547 49.2773 7.89453V13.7539C49.2773 14.1602 49.2852 14.6523 49.3008 15.2305C49.3242 15.668 49.3906 15.9648 49.5 16.1211C49.6094 16.2773 49.7734 16.4062 49.9922 16.5078V17H46.3594C46.2578 16.7422 46.1875 16.5 46.1484 16.2734C46.1094 16.0469 46.0781 15.7891 46.0547 15.5C45.5938 16 45.0625 16.4258 44.4609 16.7773C43.7422 17.1914 42.9297 17.3984 42.0234 17.3984C40.8672 17.3984 39.9102 17.0703 39.1523 16.4141C38.4023 15.75 38.0273 14.8125 38.0273 13.6016C38.0273 12.0312 38.6328 10.8945 39.8438 10.1914C40.5078 9.80859 41.4844 9.53516 42.7734 9.37109L43.9102 9.23047C44.5273 9.15234 44.9688 9.05469 45.2344 8.9375C45.7109 8.73438 45.9492 8.41797 45.9492 7.98828C45.9492 7.46484 45.7656 7.10547 45.3984 6.91016C45.0391 6.70703 44.5078 6.60547 43.8047 6.60547C43.0156 6.60547 42.457 6.80078 42.1289 7.19141C41.8945 7.48047 41.7383 7.87109 41.6602 8.36328H38.4375C38.5078 7.24609 38.8203 6.32812 39.375 5.60938ZM41.8594 14.5859C42.1719 14.8438 42.5547 14.9727 43.0078 14.9727C43.7266 14.9727 44.3867 14.7617 44.9883 14.3398C45.5977 13.918 45.9141 13.1484 45.9375 12.0312V10.7891C45.7266 10.9219 45.5117 11.0312 45.293 11.1172C45.082 11.1953 44.7891 11.2695 44.4141 11.3398L43.6641 11.4805C42.9609 11.6055 42.457 11.7578 42.1523 11.9375C41.6367 12.2422 41.3789 12.7148 41.3789 13.3555C41.3789 13.9258 41.5391 14.3359 41.8594 14.5859ZM58.2656 6.69922C57.1328 6.69922 56.3555 7.17969 55.9336 8.14062C55.7148 8.64844 55.6055 9.29688 55.6055 10.0859V17H52.2773V4.25H55.5V6.11328C55.9297 5.45703 56.3359 4.98438 56.7188 4.69531C57.4062 4.17969 58.2773 3.92188 59.332 3.92188C60.6523 3.92188 61.7305 4.26953 62.5664 4.96484C63.4102 5.65234 63.832 6.79688 63.832 8.39844V17H60.4102V9.23047C60.4102 8.55859 60.3203 8.04297 60.1406 7.68359C59.8125 7.02734 59.1875 6.69922 58.2656 6.69922ZM70.5352 19.2383C70.8945 19.543 71.5 19.6953 72.3516 19.6953C73.5547 19.6953 74.3594 19.293 74.7656 18.4883C75.0312 17.9727 75.1641 17.1055 75.1641 15.8867V15.0664C74.8438 15.6133 74.5 16.0234 74.1328 16.2969C73.4688 16.8047 72.6055 17.0586 71.543 17.0586C69.9023 17.0586 68.5898 16.4844 67.6055 15.3359C66.6289 14.1797 66.1406 12.6172 66.1406 10.6484C66.1406 8.75 66.6133 7.15625 67.5586 5.86719C68.5039 4.57031 69.8438 3.92188 71.5781 3.92188C72.2188 3.92188 72.7773 4.01953 73.2539 4.21484C74.0664 4.55078 74.7227 5.16797 75.2227 6.06641V4.22656H78.4688V16.3438C78.4688 17.9922 78.1914 19.2344 77.6367 20.0703C76.6836 21.5078 74.8555 22.2266 72.1523 22.2266C70.5195 22.2266 69.1875 21.9062 68.1562 21.2656C67.125 20.625 66.5547 19.668 66.4453 18.3945H70.0781C70.1719 18.7852 70.3242 19.0664 70.5352 19.2383ZM69.9727 12.6406C70.4258 13.7188 71.2383 14.2578 72.4102 14.2578C73.1914 14.2578 73.8516 13.9648 74.3906 13.3789C74.9297 12.7852 75.1992 11.8438 75.1992 10.5547C75.1992 9.34375 74.9414 8.42188 74.4258 7.78906C73.918 7.15625 73.2344 6.83984 72.375 6.83984C71.2031 6.83984 70.3945 7.39062 69.9492 8.49219C69.7148 9.07812 69.5977 9.80078 69.5977 10.6602C69.5977 11.4023 69.7227 12.0625 69.9727 12.6406Z" fill="#FF6B2C"/>
</svg>
