<svg width="36" height="36" viewBox="0 0 36 36" fill="none" xmlns="http://www.w3.org/2000/svg">
<path d="M18 31.5742C16.0768 31.5742 14.2721 31.2096 12.5859 30.4805C10.8997 29.7604 9.41862 28.7624 8.14258 27.4863C6.86654 26.2103 5.86393 24.7292 5.13477 23.043C4.41471 21.3568 4.05469 19.5521 4.05469 17.6289C4.05469 15.7057 4.41471 13.901 5.13477 12.2148C5.86393 10.5286 6.86654 9.04753 8.14258 7.77148C9.41862 6.48633 10.8997 5.48372 12.5859 4.76367C14.2721 4.04362 16.0768 3.68359 18 3.68359C19.9232 3.68359 21.7279 4.04362 23.4141 4.76367C25.1003 5.48372 26.5814 6.48633 27.8574 7.77148C29.1335 9.04753 30.1315 10.5286 30.8516 12.2148C31.5807 13.901 31.9453 15.7057 31.9453 17.6289C31.9453 19.5521 31.5807 21.3568 30.8516 23.043C30.1315 24.7292 29.1335 26.2103 27.8574 27.4863C26.5814 28.7624 25.1003 29.7604 23.4141 30.4805C21.7279 31.2096 19.9232 31.5742 18 31.5742ZM18 29.25C19.6042 29.25 21.1081 28.9492 22.5117 28.3477C23.9154 27.7461 25.1504 26.9121 26.2168 25.8457C27.2832 24.7793 28.1172 23.5443 28.7188 22.1406C29.3203 20.737 29.6211 19.2331 29.6211 17.6289C29.6211 16.0247 29.3203 14.5208 28.7188 13.1172C28.1172 11.7044 27.2832 10.4694 26.2168 9.41211C25.1504 8.3457 23.9154 7.51172 22.5117 6.91016C21.1081 6.30859 19.6042 6.00781 18 6.00781C16.3958 6.00781 14.8919 6.30859 13.4883 6.91016C12.0846 7.51172 10.8496 8.3457 9.7832 9.41211C8.7168 10.4694 7.88281 11.7044 7.28125 13.1172C6.67969 14.5208 6.37891 16.0247 6.37891 17.6289C6.37891 19.2331 6.67969 20.737 7.28125 22.1406C7.88281 23.5443 8.7168 24.7793 9.7832 25.8457C10.8496 26.9121 12.0846 27.7461 13.4883 28.3477C14.8919 28.9492 16.3958 29.25 18 29.25ZM12.2715 24.5195C11.9616 24.6654 11.6927 24.6973 11.4648 24.6152C11.237 24.5332 11.082 24.3783 11 24.1504C10.918 23.9134 10.9499 23.6445 11.0957 23.3438L14.9238 15.4961C15.1517 15.0495 15.4661 14.7305 15.8672 14.5391L23.6875 10.7246C24.1706 10.4967 24.5443 10.5195 24.8086 10.793C25.082 11.0664 25.1048 11.4355 24.877 11.9004L21.0625 19.7344C20.8438 20.1628 20.5293 20.4772 20.1191 20.6777L12.2715 24.5195ZM18 19.3105C18.4557 19.3105 18.8477 19.1465 19.1758 18.8184C19.5039 18.4902 19.668 18.0938 19.668 17.6289C19.668 17.1641 19.5039 16.7721 19.1758 16.4531C18.8477 16.125 18.4557 15.9609 18 15.9609C17.5352 15.9609 17.1387 16.125 16.8105 16.4531C16.4824 16.7721 16.3184 17.1641 16.3184 17.6289C16.3184 18.0938 16.4824 18.4902 16.8105 18.8184C17.1387 19.1465 17.5352 19.3105 18 19.3105Z" fill="#888888"/>
</svg>
