<svg width="36" height="36" viewBox="0 0 36 36" fill="none" xmlns="http://www.w3.org/2000/svg">
<path d="M18 30.6035C17.8633 30.6035 17.6992 30.5625 17.5078 30.4805C17.3255 30.4076 17.1615 30.3255 17.0156 30.2344C14.4453 28.5938 12.2168 26.8757 10.3301 25.0801C8.44336 23.2754 6.98503 21.4251 5.95508 19.5293C4.93424 17.6243 4.42383 15.7012 4.42383 13.7598C4.42383 12.5475 4.61523 11.4401 4.99805 10.4375C5.38997 9.42578 5.93229 8.55078 6.625 7.8125C7.31771 7.07422 8.12435 6.50456 9.04492 6.10352C9.96549 5.70247 10.9635 5.50195 12.0391 5.50195C13.3789 5.50195 14.5547 5.84375 15.5664 6.52734C16.5781 7.21094 17.3893 8.11328 18 9.23438C18.6198 8.10417 19.4355 7.20182 20.4473 6.52734C21.459 5.84375 22.6302 5.50195 23.9609 5.50195C25.0365 5.50195 26.0345 5.70247 26.9551 6.10352C27.8848 6.50456 28.6914 7.07422 29.375 7.8125C30.0677 8.55078 30.6055 9.42578 30.9883 10.4375C31.3802 11.4401 31.5762 12.5475 31.5762 13.7598C31.5762 15.7012 31.0612 17.6243 30.0312 19.5293C29.0104 21.4251 27.5566 23.2754 25.6699 25.0801C23.7923 26.8757 21.5684 28.5938 18.998 30.2344C18.8522 30.3255 18.6836 30.4076 18.4922 30.4805C18.3099 30.5625 18.1458 30.6035 18 30.6035Z" fill="#FF3B30"/>
</svg>
