<svg width="36" height="36" viewBox="0 0 36 36" fill="none" xmlns="http://www.w3.org/2000/svg">
<path d="M4.42383 13.7598C4.42383 12.5475 4.61523 11.4401 4.99805 10.4375C5.38997 9.42578 5.93685 8.55078 6.63867 7.8125C7.34049 7.07422 8.16081 6.50456 9.09961 6.10352C10.0475 5.70247 11.0729 5.50195 12.1758 5.50195C13.4427 5.50195 14.5775 5.77995 15.5801 6.33594C16.5827 6.89193 17.3893 7.63021 18 8.55078C18.6198 7.63021 19.4264 6.89193 20.4199 6.33594C21.4225 5.77995 22.5573 5.50195 23.8242 5.50195C24.9362 5.50195 25.9616 5.70247 26.9004 6.10352C27.8483 6.50456 28.6686 7.07422 29.3613 7.8125C30.0632 8.55078 30.6055 9.42578 30.9883 10.4375C31.3802 11.4401 31.5762 12.5475 31.5762 13.7598C31.5762 15.7012 31.0612 17.6243 30.0312 19.5293C29.0104 21.4251 27.5566 23.2754 25.6699 25.0801C23.7923 26.8757 21.5684 28.5938 18.998 30.2344C18.8522 30.3255 18.6836 30.4076 18.4922 30.4805C18.3099 30.5625 18.1458 30.6035 18 30.6035C17.8633 30.6035 17.6992 30.5625 17.5078 30.4805C17.3255 30.4076 17.1615 30.3255 17.0156 30.2344C14.4453 28.5938 12.2168 26.8757 10.3301 25.0801C8.44336 23.2754 6.98503 21.4251 5.95508 19.5293C4.93424 17.6243 4.42383 15.7012 4.42383 13.7598ZM6.625 13.7598C6.625 15.0267 6.93034 16.3118 7.54102 17.6152C8.15169 18.9095 8.98112 20.181 10.0293 21.4297C11.0775 22.6784 12.2624 23.8724 13.584 25.0117C14.9147 26.1419 16.2956 27.181 17.7266 28.1289C17.8724 28.2383 17.9635 28.293 18 28.293C18.0365 28.293 18.1322 28.2383 18.2871 28.1289C19.7181 27.181 21.0944 26.1419 22.416 25.0117C23.7467 23.8724 24.9316 22.6784 25.9707 21.4297C27.0189 20.181 27.8483 18.9095 28.459 17.6152C29.0697 16.3118 29.375 15.0267 29.375 13.7598C29.375 12.5475 29.1335 11.4902 28.6504 10.5879C28.1764 9.67643 27.5202 8.97005 26.6816 8.46875C25.8522 7.95833 24.9089 7.70312 23.8516 7.70312C22.9948 7.70312 22.2565 7.85807 21.6367 8.16797C21.026 8.46875 20.4974 8.85156 20.0508 9.31641C19.6133 9.77214 19.2396 10.2233 18.9297 10.6699C18.7292 10.9342 18.5651 11.1165 18.4375 11.2168C18.3099 11.3171 18.1641 11.3672 18 11.3672C17.8359 11.3672 17.6855 11.3216 17.5488 11.2305C17.4212 11.1302 17.2617 10.9434 17.0703 10.6699C16.7786 10.2142 16.4141 9.75846 15.9766 9.30273C15.5391 8.84701 15.0059 8.46875 14.377 8.16797C13.748 7.85807 13.0052 7.70312 12.1484 7.70312C11.0911 7.70312 10.1432 7.95833 9.30469 8.46875C8.47526 8.97005 7.81901 9.67643 7.33594 10.5879C6.86198 11.4902 6.625 12.5475 6.625 13.7598Z" fill="#666666"/>
</svg>
